<svg xmlns="http://www.w3.org/2000/svg" width="502" height="471" viewBox="0 0 502 471" fill="none">
  <path
    d="M431.456 400.753H143.908C67.6898 383.794 5.32991 325.332 5.32991 237.863C5.32991 224.653 6.75122 211.533 9.59384 198.591L420.174 132.097C433.028 140.543 445.259 149.91 456.773 160.122L285.594 225.725L204.846 256.696L483.778 187.077C495.216 199.908 505.612 213.637 514.869 228.134L457.928 270.977L522.153 240.362L523.042 241.79C532.237 257.937 537.05 276.226 537 294.829C536.949 313.432 532.037 331.695 522.754 347.791C513.472 363.887 500.145 377.25 484.106 386.545C468.068 395.84 449.882 400.739 431.367 400.753H431.456Z"
    fill="#63FFD4" />
  <path
    d="M431.456 400.753H143.908C67.6898 383.794 5.32991 325.332 5.32991 237.863C5.32991 224.653 6.75122 211.533 9.59384 198.591L420.174 132.097C433.028 140.543 445.259 149.91 456.773 160.122L285.594 225.725L204.846 256.696L483.778 187.077C495.216 199.908 505.612 213.637 514.869 228.134L457.928 270.977L522.153 240.362L523.042 241.79C532.237 257.937 537.05 276.226 537 294.829C536.949 313.432 532.037 331.695 522.754 347.791C513.472 363.887 500.145 377.25 484.106 386.545C468.068 395.84 449.882 400.739 431.367 400.753H431.456Z"
    fill="url(#paint0_linear_207_13204)" fill-opacity="0.5" />
  <path
    d="M233.45 144.592C153.857 161.729 71.0655 179.848 11.0151 193.147C12.3476 187.881 13.8578 182.793 15.6344 177.706C62.7752 128.639 124.268 95.964 191.166 84.4347C257.25 73.105 325.206 82.8101 385.53 112.193C342.003 121.208 288.437 132.721 233.45 144.592Z"
    fill="#63FFD4" />
  <path
    d="M233.45 144.592C153.857 161.729 71.0655 179.848 11.0151 193.147C12.3476 187.881 13.8578 182.793 15.6344 177.706C62.7752 128.639 124.268 95.964 191.166 84.4347C257.25 73.105 325.206 82.8101 385.53 112.193C342.003 121.208 288.437 132.721 233.45 144.592Z"
    fill="url(#paint1_linear_207_13204)" fill-opacity="0.5" />
  <path
    d="M82.3471 127.634C94.7159 127.634 106.578 122.697 115.324 113.909C124.07 105.122 128.984 93.2029 128.984 80.7753C128.984 68.3476 124.07 56.4289 115.324 47.6413C106.578 38.8536 94.7159 33.9167 82.3471 33.9167C69.9783 33.9167 58.116 38.8536 49.37 47.6413C40.6239 56.4289 35.7104 68.3476 35.7104 80.7753C35.7104 93.2029 40.6239 105.122 49.37 113.909C58.116 122.697 69.9783 127.634 82.3471 127.634Z"
    fill="#FF7264" />
  <path
    d="M82.3471 127.634C94.7159 127.634 106.578 122.697 115.324 113.909C124.07 105.122 128.984 93.2029 128.984 80.7753C128.984 68.3476 124.07 56.4289 115.324 47.6413C106.578 38.8536 94.7159 33.9167 82.3471 33.9167C69.9783 33.9167 58.116 38.8536 49.37 47.6413C40.6239 56.4289 35.7104 68.3476 35.7104 80.7753C35.7104 93.2029 40.6239 105.122 49.37 113.909C58.116 122.697 69.9783 127.634 82.3471 127.634Z"
    fill="url(#paint2_radial_207_13204)" fill-opacity="0.5" />
  <path
    d="M430.834 400.753C402.23 428.421 306.292 429.492 153.235 402.538C150.126 402.091 147.017 401.467 143.908 400.753C67.6898 383.794 5.32991 325.332 5.32991 237.863C5.3442 217.376 8.79788 197.038 15.5456 177.706C37.1317 116.566 90.6085 73.2779 153.146 73.2779C168.692 73.2779 180.95 77.3836 191.077 84.4347C209.732 97.2874 221.28 119.779 233.361 144.592L241.356 161.015C252.727 183.953 265.696 207.338 285.594 225.725C290.367 230.161 295.476 234.22 300.873 237.863C419.908 318.014 459.705 372.905 430.834 400.753Z"
    fill="#2CCBBB" />
  <path
    d="M430.834 400.753C402.23 428.421 306.292 429.492 153.235 402.538C150.126 402.091 147.017 401.467 143.908 400.753C67.6898 383.794 5.32991 325.332 5.32991 237.863C5.3442 217.376 8.79788 197.038 15.5456 177.706C37.1317 116.566 90.6085 73.2779 153.146 73.2779C168.692 73.2779 180.95 77.3836 191.077 84.4347C209.732 97.2874 221.28 119.779 233.361 144.592L241.356 161.015C252.727 183.953 265.696 207.338 285.594 225.725C290.367 230.161 295.476 234.22 300.873 237.863C419.908 318.014 459.705 372.905 430.834 400.753Z"
    fill="url(#paint3_radial_207_13204)" fill-opacity="0.5" />
  <path
    d="M334.896 382.009C362.345 382.009 384.553 378.26 384.553 373.619C384.553 368.978 362.345 365.229 334.896 365.229C307.536 365.229 285.328 368.978 285.328 373.619C285.328 378.26 307.536 382.009 334.896 382.009ZM68.4005 288.381C95.7607 288.381 117.969 284.632 117.969 279.991C117.969 275.35 95.7607 271.601 68.3117 271.601C40.9515 271.601 18.7435 275.35 18.7435 279.991C18.7435 284.632 40.9515 288.381 68.3117 288.381H68.4005Z"
    fill="#25AC9F" />
  <path
    d="M74.9741 254.375C66.7127 265.086 67.6898 279.634 67.6898 279.634C67.6898 279.634 81.9029 276.778 90.0755 265.978C98.248 255.268 97.3597 240.63 97.3597 240.63C97.3597 240.63 83.1466 243.575 74.9741 254.286V254.375Z"
    fill="#25AC9F" />
  <path
    d="M80.304 256.696C78.705 270.173 67.8675 279.902 67.8675 279.902C67.8675 279.902 59.7838 267.942 61.3828 254.464C62.9818 241.076 73.7304 231.258 73.7304 231.258C73.7304 231.258 81.9029 243.218 80.304 256.696Z"
    fill="#63FFD4" />
  <path
    d="M207.422 350.234C230.874 350.234 249.884 347.021 249.884 343.094C249.884 339.078 230.874 335.864 207.422 335.864C183.971 335.864 165.05 339.078 165.05 343.005C165.05 347.021 183.971 350.234 207.422 350.234Z"
    fill="#25AC9F" />
  <path
    d="M399.477 310.605C399.477 357.286 371.85 373.619 337.739 373.619C335.368 373.641 332.998 373.581 330.632 373.441C299.896 371.209 276 354.072 276 310.605C276 265.621 333.119 208.855 337.383 204.571L337.65 204.393C337.65 204.393 399.477 263.836 399.477 310.605Z"
    fill="#63FFD4" />
  <path
    d="M399.477 310.605C399.477 357.286 371.85 373.619 337.739 373.619C335.368 373.641 332.998 373.581 330.632 373.441C299.896 371.209 276 354.072 276 310.605C276 265.621 333.119 208.855 337.383 204.571L337.65 204.393C337.65 204.393 399.477 263.836 399.477 310.605Z"
    fill="url(#paint4_radial_207_13204)" fill-opacity="0.5" />
  <path
    d="M335.518 366.479L358.081 334.793L335.429 369.96V373.619L330.721 373.441L333.119 326.671V326.225L333.386 321.762L310.645 286.507L333.475 318.46V319.352L335.251 284.097L315.886 247.592L335.518 277.938L337.383 204.571L337.117 262.408L356.482 239.47L337.028 267.317L336.584 299.002L354.617 268.656L336.495 303.644L336.228 321.227L362.434 278.92L336.14 327.385L335.518 366.479Z"
    fill="#030D54" />
  <path
    d="M136.179 231.883C171.978 231.883 200.938 226.974 200.938 220.905C200.938 214.835 171.978 209.926 136.179 209.926C100.469 209.926 71.4208 214.835 71.4208 220.905C71.4208 226.974 100.469 231.883 136.268 231.883H136.179Z"
    fill="#25AC9F" />
  <path
    d="M220.392 138.612C220.392 199.573 184.415 220.905 139.91 220.994C136.827 220.98 133.746 220.861 130.672 220.637C90.6085 217.781 59.3397 195.467 59.3397 138.701C59.3397 79.972 133.958 5.80154 139.466 0.357018L139.821 0C139.821 0 220.303 77.6514 220.303 138.612H220.392Z"
    fill="#63FFD4" />
  <path
    d="M220.392 138.612C220.392 199.573 184.415 220.905 139.91 220.994C136.827 220.98 133.746 220.861 130.672 220.637C90.6085 217.781 59.3397 195.467 59.3397 138.701C59.3397 79.972 133.958 5.80154 139.466 0.357018L139.821 0C139.821 0 220.303 77.6514 220.303 138.612H220.392Z"
    fill="url(#paint5_radial_207_13204)" fill-opacity="0.5" />
  <path
    d="M136.979 211.622L166.382 170.208L136.89 216.174V220.905C134.758 220.905 132.715 220.816 130.672 220.637L133.87 159.587V159.051L134.136 153.25L104.555 107.195L134.136 149.055L134.225 150.215L136.623 104.16L111.217 56.5873L136.979 96.0378L139.466 0.357018L139.111 75.6878L164.339 45.7875L139.022 82.2033L138.311 123.528L161.94 83.8992L138.222 129.597L137.867 152.536L172.067 97.3766L137.778 160.569L136.89 211.622H136.979Z"
    fill="#030D54" />
  <path
    d="M512.56 436.454L512.471 436.901C510.961 440.917 487.864 448.057 450.466 454.751C386.319 465.74 321.352 471.174 256.28 470.996C116.814 471.085 3.46444 446.004 0.0888318 436.901L0 436.544V436.276L0.0888318 436.097C3.81977 428.332 117.08 439.846 256.28 439.846C283.374 439.846 309.49 439.489 334.008 438.775C382.599 437.525 424.971 435.383 456.24 434.312L465.123 433.955C493.727 433.063 511.05 433.063 512.471 436.097V436.276L512.56 436.544V436.454Z"
    fill="#2CCBBB" />
  <path
    d="M512.56 436.454L512.471 436.901C510.961 440.917 487.864 448.057 450.466 454.751C386.319 465.74 321.352 471.174 256.28 470.996C116.814 471.085 3.46444 446.004 0.0888318 436.901L0 436.544V436.276L0.0888318 436.097C3.81977 428.332 117.08 439.846 256.28 439.846C283.374 439.846 309.49 439.489 334.008 438.775C382.599 437.525 424.971 435.383 456.24 434.312L465.123 433.955C493.727 433.063 511.05 433.063 512.471 436.097V436.276L512.56 436.544V436.454Z"
    fill="url(#paint6_linear_207_13204)" fill-opacity="0.5" />
  <path
    d="M256.28 452.163C397.789 452.163 512.56 445.112 512.56 436.544C512.56 427.886 397.789 420.924 256.28 420.924C114.771 420.924 0 427.886 0 436.544C0 445.112 114.771 452.163 256.28 452.163Z"
    fill="#63FFD4" />
  <path
    d="M256.28 452.163C397.789 452.163 512.56 445.112 512.56 436.544C512.56 427.886 397.789 420.924 256.28 420.924C114.771 420.924 0 427.886 0 436.544C0 445.112 114.771 452.163 256.28 452.163Z"
    fill="url(#paint7_linear_207_13204)" fill-opacity="0.5" />
  <path
    d="M441.05 442.077C452.243 442.077 461.304 440.114 461.304 437.615C461.304 435.115 452.243 433.063 441.05 433.063C429.857 433.063 420.796 435.115 420.796 437.525C420.796 440.114 429.857 442.077 441.05 442.077ZM363.589 442.077C374.693 442.077 383.753 440.114 383.753 437.615C383.753 435.115 374.693 433.063 363.589 433.063C352.396 433.063 343.335 435.115 343.335 437.525C343.335 440.114 352.396 442.077 363.589 442.077Z"
    fill="#2CCBBB" />
  <path fill-rule="evenodd" clip-rule="evenodd"
    d="M364.388 436.454L363.233 418.603V418.514L362.079 418.871L356.749 434.312L348.398 428.421L361.723 418.603H361.812L362.7 417.979L348.754 410.035L345.289 413.873L345.822 417.443L361.901 417.711V418.068L345.556 417.8L344.934 413.784L349.642 408.607L356.66 400.306L356.749 400.663L358.259 399.057L363.766 400.038V399.771H364.122V400.128L372.294 401.556L364.655 416.997L363.589 417.8V417.979L381.266 411.731L379.134 428.421L364.122 418.782L363.589 418.425L372.472 432.795L364.388 436.365V436.454ZM363.677 419.228L364.655 435.829L371.939 432.706L363.677 419.228ZM356.571 433.777L349.02 428.421L361.546 419.228L356.571 433.777ZM363.944 418.246L364.299 418.425L378.868 427.797L380.822 412.356L363.944 418.246ZM363.056 417.711L362.7 416.908L356.837 401.109L358.348 399.414L363.677 400.395L363.233 417.622H363.145L363.056 417.711ZM349.02 409.856L362.523 417.443L362.345 417.086L356.571 401.377L349.909 408.785L349.02 409.856ZM363.589 417.354L364.122 400.395L371.761 401.824L364.388 416.729L363.5 417.354H363.589Z"
    fill="#28316D" />
  <path d="M380.467 399.057L388.195 406.733L385.797 409.232L378.068 401.556L380.467 399.057Z"
    fill="#28316D" />
  <path fill-rule="evenodd" clip-rule="evenodd"
    d="M434.921 397.361C440.375 395.846 446.204 396.57 451.127 399.373C456.05 402.177 459.663 406.831 461.17 412.311C462.678 417.791 461.958 423.648 459.167 428.595C456.377 433.541 451.745 437.171 446.291 438.686C443.59 439.436 440.769 439.644 437.989 439.299C435.208 438.953 432.522 438.061 430.085 436.673C427.647 435.285 425.506 433.428 423.782 431.208C422.059 428.988 420.788 426.449 420.041 423.736C419.295 421.022 419.087 418.187 419.431 415.394C419.775 412.6 420.663 409.901 422.044 407.452C423.426 405.003 425.274 402.851 427.484 401.12C429.693 399.388 432.22 398.111 434.921 397.361ZM424.883 421.46C425.79 425.649 428.316 429.306 431.906 431.624C435.496 433.942 439.856 434.733 444.026 433.821C448.196 432.91 451.835 430.371 454.142 426.764C456.449 423.157 457.236 418.777 456.329 414.587C455.434 410.397 452.919 406.736 449.337 404.409C445.755 402.083 441.4 401.281 437.23 402.181C433.06 403.08 429.417 405.607 427.101 409.206C424.785 412.805 423.987 417.18 424.883 421.37V421.46Z"
    fill="#28316D" />
  <path
    d="M406.583 372.28C406.583 372.28 427.903 371.566 428.347 374.333C428.791 377.011 407.027 375.94 407.027 375.94C407.027 375.94 405.251 374.155 406.583 372.28Z"
    fill="#676D98" />
  <path d="M385.53 383.348H389.261V416.283H385.53V383.348Z" fill="#030D54" />
  <path d="M389.35 383.348V385.847L385.53 386.204V383.348H389.35Z" fill="black" />
  <path
    d="M389.083 380.581C388.55 380.581 388.017 380.581 387.484 380.402C385.441 380.045 380.289 379.153 378.868 380.581C377.091 382.366 377.713 385.401 382.421 385.847C387.04 386.293 394.946 385.133 396.634 383.348C396.634 383.348 393.703 380.938 388.995 380.67L389.083 380.581Z"
    fill="#28316D" />
  <path
    d="M388.284 392.363L427.903 379.956L429.235 383.08L388.639 397.093L388.284 392.363ZM400.01 411.909L428.614 383.616L430.212 385.936L402.941 414.498L400.01 411.909ZM407.116 380.045L427.015 373.173C427.015 373.173 430.568 373.619 429.147 376.475L409.159 382.455C409.159 382.455 406.139 382.812 407.116 379.956V380.045Z"
    fill="#030D54" />
  <path fill-rule="evenodd" clip-rule="evenodd"
    d="M377.358 401.734C380.099 404.136 382.188 407.197 383.431 410.631C384.674 414.066 385.029 417.76 384.464 421.37C383.709 426.051 381.43 430.347 377.984 433.586C374.538 436.825 370.119 438.824 365.421 439.27C360.723 439.715 356.011 438.581 352.022 436.047C348.034 433.512 344.996 429.72 343.383 425.264C341.77 420.808 341.675 415.94 343.111 411.423C344.547 406.907 347.434 402.997 351.32 400.306C355.205 397.615 359.869 396.295 364.581 396.554C369.293 396.812 373.787 398.634 377.358 401.734ZM348.221 423.423C348.86 425.515 349.916 427.454 351.324 429.124C352.732 430.793 354.463 432.157 356.412 433.134C358.361 434.111 360.487 434.68 362.661 434.807C364.835 434.933 367.012 434.615 369.06 433.87C371.108 433.126 372.984 431.971 374.575 430.476C376.165 428.981 377.437 427.177 378.312 425.174C379.188 423.17 379.649 421.009 379.668 418.821C379.687 416.633 379.264 414.464 378.424 412.445C376.831 408.619 373.834 405.554 370.055 403.887C366.275 402.219 362.002 402.076 358.121 403.487C354.239 404.898 351.046 407.755 349.203 411.466C347.36 415.177 347.009 419.459 348.221 423.423Z"
    fill="#28316D" />
  <path
    d="M384.731 417.979C384.731 419.05 384.731 420.21 384.464 421.281L379.134 420.835C379.578 418.603 379.578 416.372 379.134 414.23L384.198 413.248C384.553 414.765 384.731 416.372 384.731 417.979ZM389.35 412.356V416.283H385.53V412.98L389.35 412.445V412.356Z"
    fill="black" />
  <path
    d="M364.921 417.889C364.921 417.889 395.39 409.856 397.878 412.98C400.365 416.015 402.941 420.121 395.213 421.549C387.573 422.977 364.388 419.05 364.388 419.05L364.921 417.889Z"
    fill="#030D54" />
  <path
    d="M379.934 404.323L376.025 407.893C375.403 407 374.604 406.286 373.715 405.572L377.358 401.734L379.934 404.412V404.323Z"
    fill="black" />
  <path d="M363.944 416.283L386.685 392.363L387.396 397.896L365.188 418.425L363.944 416.283Z"
    fill="#030D54" />
  <path
    d="M363.677 420.21C364.29 420.21 364.877 419.965 365.311 419.53C365.744 419.095 365.987 418.505 365.987 417.889C365.987 417.274 365.744 416.684 365.311 416.248C364.877 415.813 364.29 415.569 363.677 415.569C363.065 415.569 362.477 415.813 362.044 416.248C361.611 416.684 361.368 417.274 361.368 417.889C361.368 418.505 361.611 419.095 362.044 419.53C362.477 419.965 363.065 420.21 363.677 420.21Z"
    fill="black" />
  <path
    d="M363.322 420.21C363.935 420.21 364.522 419.965 364.955 419.53C365.388 419.095 365.632 418.505 365.632 417.889C365.632 417.274 365.388 416.684 364.955 416.248C364.522 415.813 363.935 415.569 363.322 415.569C362.71 415.569 362.122 415.813 361.689 416.248C361.256 416.684 361.013 417.274 361.013 417.889C361.013 418.505 361.256 419.095 361.689 419.53C362.122 419.965 362.71 420.21 363.322 420.21Z"
    fill="#676D98" />
  <path
    d="M399.299 420.21C400.524 420.21 401.699 419.721 402.565 418.851C403.432 417.98 403.918 416.8 403.918 415.569C403.918 414.338 403.432 413.157 402.565 412.287C401.699 411.416 400.524 410.927 399.299 410.927C398.074 410.927 396.899 411.416 396.033 412.287C395.166 413.157 394.68 414.338 394.68 415.569C394.68 416.8 395.166 417.98 396.033 418.851C396.899 419.721 398.074 420.21 399.299 420.21Z"
    fill="black" />
  <path
    d="M399.654 420.21C400.879 420.21 402.054 419.721 402.921 418.851C403.787 417.98 404.274 416.8 404.274 415.569C404.274 414.338 403.787 413.157 402.921 412.287C402.054 411.416 400.879 410.927 399.654 410.927C398.429 410.927 397.254 411.416 396.388 412.287C395.522 413.157 395.035 414.338 395.035 415.569C395.035 416.8 395.522 417.98 396.388 418.851C397.254 419.721 398.429 420.21 399.654 420.21Z"
    fill="#676D98" />
  <path
    d="M398.144 416.908C397.7 416.372 397.789 415.658 398.411 415.212C398.944 414.765 399.654 414.944 400.099 415.479L403.741 420.388C404.185 420.924 404.096 421.727 403.563 422.174C403.03 422.531 402.23 422.441 401.786 421.906L398.144 416.908Z"
    fill="#28316D" />
  <path
    d="M397.967 414.498L393.17 417.086L391.748 416.015V415.212C393.828 415.095 395.832 414.382 397.522 413.159L397.878 414.498H397.967Z"
    fill="black" />
  <path d="M394.769 420.656H405.606V424.137H394.769V420.656Z" fill="#6C63FF" />
  <path d="M394.769 420.656H405.606V424.137H394.769V420.656Z" fill="#28316D" />
  <path fill-rule="evenodd" clip-rule="evenodd"
    d="M441.494 436.454L440.428 418.603L439.273 418.96L433.943 434.401L425.593 428.421L438.918 418.693H439.096L439.984 418.068L425.949 410.124L422.484 413.962L423.017 417.532L439.096 417.8V418.157L422.839 417.711L422.218 413.694L426.926 408.518L433.943 400.306L434.032 400.663L435.542 399.057L441.05 399.949V399.771H441.405V400.128L449.667 401.556L441.938 416.997L440.872 417.8V417.979L458.639 411.731L456.418 428.421L441.405 418.782L440.872 418.425L449.755 432.795L441.672 436.365L441.494 436.454ZM440.872 419.228L441.938 435.919L449.134 432.706L440.872 419.317V419.228ZM433.766 433.866L426.215 428.511L438.74 419.317L433.855 433.866H433.766ZM441.139 418.336L441.583 418.514L456.063 427.886L458.017 412.445L441.139 418.336ZM440.25 417.711L439.895 416.997L434.121 401.109L435.542 399.503L440.872 400.395L440.428 417.711H440.25ZM426.215 409.856L439.806 417.532L439.54 417.175L433.855 401.467L427.103 408.875L426.215 409.856ZM440.784 417.443L441.316 400.485L449.045 401.913L441.494 416.818L440.606 417.443H440.784Z"
    fill="#28316D" />
  <path
    d="M441.405 416.551L439.362 417.711L425.149 377.993L424.527 376.208L427.903 374.333L428.791 377.011L441.405 416.551Z"
    fill="#030D54" />
  <path
    d="M440.428 420.031C441.052 420.031 441.651 419.782 442.093 419.339C442.534 418.895 442.782 418.294 442.782 417.666C442.782 417.039 442.534 416.437 442.093 415.994C441.651 415.55 441.052 415.301 440.428 415.301C439.804 415.301 439.205 415.55 438.764 415.994C438.322 416.437 438.074 417.039 438.074 417.666C438.074 418.294 438.322 418.895 438.764 419.339C439.205 419.782 439.804 420.031 440.428 420.031Z"
    fill="black" />
  <path
    d="M440.606 420.299C441.218 420.299 441.806 420.055 442.239 419.62C442.672 419.184 442.915 418.594 442.915 417.979C442.915 417.363 442.672 416.773 442.239 416.338C441.806 415.902 441.218 415.658 440.606 415.658C439.993 415.658 439.406 415.902 438.973 416.338C438.54 416.773 438.296 417.363 438.296 417.979C438.296 418.594 438.54 419.184 438.973 419.62C439.406 420.055 439.993 420.299 440.606 420.299Z"
    fill="#676D98" />
  <path
    d="M436.52 402.27L433.855 403.162L432.078 398.343C433.055 397.986 434.032 397.629 434.921 397.45L436.52 402.27ZM428.702 376.922L425.149 377.993L424.527 376.208L427.903 374.333L428.791 377.011L428.702 376.922Z"
    fill="black" />
  <path
    d="M233.272 441.185C241.889 441.185 248.818 439.846 248.818 438.061C248.818 436.276 241.889 434.937 233.272 434.937C224.745 434.937 217.727 436.365 217.727 438.061C217.727 439.846 224.745 441.185 233.272 441.185ZM291.901 441.185C300.518 441.185 307.447 439.846 307.447 438.061C307.447 436.276 300.518 434.937 291.901 434.937C283.374 434.937 276.356 436.365 276.356 438.061C276.356 439.846 283.374 441.185 291.901 441.185Z"
    fill="#2CCBBB" />
  <path fill-rule="evenodd" clip-rule="evenodd"
    d="M242.511 430.653C242.635 431.894 242.499 433.147 242.111 434.332C241.723 435.517 241.092 436.607 240.26 437.532C239.427 438.457 238.41 439.196 237.276 439.702C236.141 440.208 234.913 440.47 233.672 440.47C232.431 440.47 231.203 440.208 230.068 439.702C228.934 439.196 227.917 438.457 227.085 437.532C226.252 436.607 225.621 435.517 225.233 434.332C224.846 433.147 224.709 431.894 224.833 430.653C225.053 428.451 226.079 426.41 227.713 424.925C229.346 423.441 231.47 422.619 233.672 422.619C235.874 422.619 237.998 423.441 239.632 424.925C241.265 426.41 242.291 428.451 242.511 430.653ZM239.313 430.653C239.313 432.144 238.723 433.574 237.674 434.629C236.624 435.683 235.201 436.276 233.717 436.276C232.232 436.276 230.809 435.683 229.759 434.629C228.71 433.574 228.12 432.144 228.12 430.653C228.12 429.161 228.71 427.731 229.759 426.677C230.809 425.622 232.232 425.03 233.717 425.03C235.201 425.03 236.624 425.622 237.674 426.677C238.723 427.731 239.313 429.161 239.313 430.653ZM300.429 430.742C300.609 432.008 300.516 433.297 300.156 434.524C299.796 435.75 299.179 436.885 298.345 437.85C297.511 438.816 296.48 439.59 295.323 440.121C294.165 440.652 292.907 440.927 291.635 440.927C290.362 440.927 289.105 440.652 287.947 440.121C286.79 439.59 285.759 438.816 284.925 437.85C284.091 436.885 283.474 435.75 283.114 434.524C282.754 433.297 282.661 432.008 282.841 430.742C283.142 428.614 284.198 426.668 285.813 425.259C287.429 423.851 289.496 423.076 291.635 423.076C293.774 423.076 295.841 423.851 297.456 425.259C299.072 426.668 300.128 428.614 300.429 430.742ZM297.32 430.742C297.32 432.233 296.73 433.664 295.681 434.718C294.631 435.773 293.208 436.365 291.724 436.365C290.239 436.365 288.816 435.773 287.766 434.718C286.717 433.664 286.127 432.233 286.127 430.742C286.127 429.251 286.717 427.82 287.766 426.766C288.816 425.711 290.239 425.119 291.724 425.119C293.208 425.119 294.631 425.711 295.681 426.766C296.73 427.82 297.32 429.251 297.32 430.742Z"
    fill="#28316D" />
  <path fill-rule="evenodd" clip-rule="evenodd"
    d="M289.769 410.035L274.402 424.851L275.823 426.726L289.769 412.623V409.946V410.035Z"
    fill="#28316D" />
  <path fill-rule="evenodd" clip-rule="evenodd"
    d="M279.11 422.352L233.717 429.76V431.188L275.467 426.904L279.021 422.441L279.11 422.352ZM225.455 422.174C225.455 422.174 232.917 416.015 239.491 420.567L247.841 426.815C247.841 426.815 250.772 427.172 250.683 426.369C250.683 425.744 252.105 426.726 252.282 426.369C252.371 426.101 250.772 425.476 247.219 423.334C242.777 420.656 235.937 415.301 230.074 417.979C224.212 420.478 225.455 422.084 225.455 422.084V422.174Z"
    fill="#28316D" />
  <path
    d="M233.628 433.241C234.037 433.315 234.457 433.297 234.859 433.19C235.261 433.082 235.634 432.888 235.953 432.62C236.272 432.352 236.528 432.017 236.704 431.638C236.88 431.26 236.971 430.847 236.971 430.43C236.971 430.012 236.88 429.599 236.704 429.221C236.528 428.842 236.272 428.507 235.953 428.239C235.634 427.971 235.261 427.777 234.859 427.669C234.457 427.562 234.037 427.545 233.628 427.618C232.971 427.736 232.377 428.082 231.948 428.596C231.52 429.11 231.286 429.759 231.286 430.43C231.286 431.1 231.52 431.749 231.948 432.263C232.377 432.777 232.971 433.123 233.628 433.241Z"
    fill="#030D54" />
  <path
    d="M233.628 432.349C233.913 432.411 234.208 432.408 234.492 432.34C234.776 432.273 235.042 432.142 235.269 431.958C235.496 431.774 235.679 431.541 235.805 431.277C235.931 431.012 235.996 430.723 235.996 430.43C235.996 430.136 235.931 429.847 235.805 429.582C235.679 429.318 235.496 429.085 235.269 428.901C235.042 428.717 234.776 428.586 234.492 428.519C234.208 428.451 233.913 428.448 233.628 428.511C233.191 428.606 232.801 428.848 232.521 429.197C232.24 429.546 232.088 429.981 232.088 430.43C232.088 430.878 232.24 431.313 232.521 431.662C232.801 432.011 233.191 432.254 233.628 432.349Z"
    fill="white" fill-opacity="0.4" />
  <path
    d="M289.325 369.513C289.858 369.692 291.28 371.299 291.28 371.299L293.5 429.849L289.947 430.117L288.526 371.477L288.259 369.87C288.082 369.603 288.792 369.424 289.325 369.603V369.513Z"
    fill="#030D54" />
  <path
    d="M280.709 364.515C280.709 365.051 280.709 365.586 280.975 366.122C281.153 366.657 281.419 367.014 281.775 367.193L293.589 373.887L293.411 371.209L282.308 363.355C282.13 363.176 281.863 363.176 281.597 363.266C281.153 363.355 280.886 363.801 280.709 364.515Z"
    fill="#676D98" />
  <path
    d="M291.901 433.598C292.311 433.672 292.731 433.654 293.133 433.547C293.534 433.439 293.908 433.245 294.226 432.977C294.545 432.709 294.802 432.374 294.977 431.995C295.153 431.617 295.245 431.204 295.245 430.787C295.245 430.369 295.153 429.956 294.977 429.578C294.802 429.2 294.545 428.864 294.226 428.596C293.908 428.328 293.534 428.134 293.133 428.026C292.731 427.919 292.311 427.902 291.901 427.975C291.245 428.093 290.65 428.439 290.222 428.953C289.794 429.467 289.559 430.116 289.559 430.787C289.559 431.457 289.794 432.106 290.222 432.62C290.65 433.134 291.245 433.48 291.901 433.598Z"
    fill="#030D54" />
  <path
    d="M291.901 432.706C292.187 432.768 292.482 432.765 292.766 432.697C293.05 432.63 293.315 432.499 293.542 432.315C293.77 432.131 293.953 431.898 294.079 431.634C294.205 431.369 294.27 431.08 294.27 430.787C294.27 430.493 294.205 430.204 294.079 429.939C293.953 429.675 293.77 429.442 293.542 429.258C293.315 429.074 293.05 428.943 292.766 428.876C292.482 428.808 292.187 428.805 291.901 428.868C291.465 428.963 291.074 429.205 290.794 429.554C290.514 429.903 290.361 430.338 290.361 430.787C290.361 431.235 290.514 431.67 290.794 432.019C291.074 432.368 291.465 432.611 291.901 432.706Z"
    fill="white" fill-opacity="0.4" />
  <path fill-rule="evenodd" clip-rule="evenodd"
    d="M281.064 341.845C282.13 341.845 283.018 342.737 283.018 343.808C283.018 344.879 282.13 345.772 281.064 345.772C279.909 345.772 279.021 344.879 279.021 343.808C279.021 342.648 279.909 341.755 281.064 341.755V341.845Z"
    fill="#FF3F64" />
  <path fill-rule="evenodd" clip-rule="evenodd"
    d="M261.166 373.976C262.32 373.976 263.209 374.869 263.209 375.94C263.209 377.011 262.32 377.903 261.166 377.903C260.1 377.903 259.122 377.011 259.122 375.94C259.122 374.869 260.011 373.976 261.166 373.976ZM365.632 356.036C366.698 356.036 367.586 356.929 367.586 358C367.586 359.071 366.698 359.963 365.632 359.963C364.477 359.963 363.589 359.071 363.589 358C363.589 356.929 364.477 356.036 365.632 356.036ZM314.465 412.713C315.531 412.713 316.419 413.605 316.419 414.765C316.419 415.837 315.531 416.729 314.376 416.729C313.31 416.729 312.422 415.837 312.422 414.765C312.422 413.605 313.31 412.713 314.376 412.713H314.465Z"
    fill="#4629D3" />
  <path fill-rule="evenodd" clip-rule="evenodd"
    d="M308.335 358C309.49 358 310.378 358.892 310.378 359.963C310.378 361.124 309.49 362.016 308.335 362.016C307.269 362.016 306.381 361.124 306.381 359.963C306.381 358.892 307.269 358 308.335 358Z"
    fill="#FF7264" />
  <path fill-rule="evenodd" clip-rule="evenodd"
    d="M314.109 389.863L315.531 391.648L314.998 393.791L317.041 392.987L318.906 394.326L318.729 392.095L320.505 390.667L318.284 390.042L317.396 387.9L316.33 389.863H314.109ZM391.393 350.056L392.814 351.841L392.281 354.072L394.324 353.269L396.19 354.608L396.012 352.287L397.789 350.949L395.568 350.324L394.68 348.182L393.614 350.056H391.393Z"
    fill="#FFC217" />
  <path fill-rule="evenodd" clip-rule="evenodd"
    d="M489.463 147.27C488.842 146.377 487.687 146.11 486.798 146.734C485.821 147.359 485.555 148.519 486.177 149.501C486.798 150.394 488.042 150.662 488.93 150.037C489.819 149.501 490.085 148.252 489.463 147.359V147.27Z"
    fill="#FF3F64" />
  <path fill-rule="evenodd" clip-rule="evenodd"
    d="M461.837 172.975C461.215 172.083 459.971 171.815 458.994 172.44C458.106 173.064 457.839 174.314 458.461 175.206C459.083 176.099 460.327 176.456 461.304 175.831C462.192 175.206 462.459 173.957 461.837 172.975ZM418.309 75.8663C417.687 74.9737 416.444 74.7952 415.466 75.42C415.161 75.7606 414.977 76.1942 414.945 76.6518C414.913 77.1094 415.035 77.5645 415.29 77.9446C415.546 78.3246 415.921 78.6077 416.355 78.7487C416.79 78.8897 417.259 78.8805 417.687 78.7224C418.664 78.0976 418.931 76.9373 418.309 75.9555V75.8663ZM399.832 150.483C399.21 149.59 397.967 149.323 397.078 149.947C396.772 150.288 396.589 150.722 396.557 151.179C396.525 151.637 396.647 152.092 396.902 152.472C397.158 152.852 397.533 153.135 397.967 153.276C398.402 153.417 398.87 153.408 399.299 153.25C400.187 152.714 400.454 151.465 399.832 150.572V150.483Z"
    fill="#4629D3" />
  <path fill-rule="evenodd" clip-rule="evenodd"
    d="M428.347 165.031C427.725 164.139 426.482 163.782 425.504 164.407C424.616 165.031 424.35 166.281 424.971 167.263C425.593 168.155 426.837 168.423 427.814 167.798C428.702 167.174 428.969 165.924 428.347 165.031Z"
    fill="#FF7264" />
  <path fill-rule="evenodd" clip-rule="evenodd"
    d="M440.073 98.1799L441.228 100.054L439.007 99.8757L437.497 101.572L436.964 99.3402L434.832 98.5369L436.875 97.3766L437.053 95.2345L438.74 96.6626L440.961 96.127L440.073 98.1799ZM379.934 132.989L381.177 134.774L378.868 134.596L377.446 136.292L376.913 134.149L374.781 133.257L376.736 132.186L376.913 129.954L378.69 131.472L380.911 130.936L380.023 132.989H379.934Z"
    fill="#FFC217" />
  <path fill-rule="evenodd" clip-rule="evenodd"
    d="M69.2888 403.162C68.134 410.303 70.0883 416.104 72.1314 421.906C74.344 428.012 77.4909 433.733 81.4588 438.864C78.8827 401.377 76.1289 392.809 73.9081 392.809C71.9538 392.72 69.9995 399.324 69.2888 403.162Z"
    fill="#FF7264" />
  <path fill-rule="evenodd" clip-rule="evenodd"
    d="M69.2888 403.162C68.134 410.303 70.0883 416.104 72.1314 421.906C74.344 428.012 77.4909 433.733 81.4588 438.864C78.8827 401.377 76.1289 392.809 73.9081 392.809C71.9538 392.72 69.9995 399.324 69.2888 403.162Z"
    fill="url(#paint8_radial_207_13204)" fill-opacity="0.2" />
  <path fill-rule="evenodd" clip-rule="evenodd"
    d="M81.7253 438.239C79.9486 437.972 82.4359 419.496 85.4562 407C86.3445 403.43 86.9664 401.467 87.4994 401.467C88.5653 401.556 88.9207 409.41 88.3877 415.836C87.3217 427.261 83.2354 438.596 81.8141 438.329"
    fill="#FF7264" />
  <path fill-rule="evenodd" clip-rule="evenodd"
    d="M81.7253 438.239C79.9486 437.972 82.4359 419.496 85.4562 407C86.3445 403.43 86.9664 401.467 87.4994 401.467C88.5653 401.556 88.9207 409.41 88.3877 415.836C87.3217 427.261 83.2354 438.596 81.8141 438.329"
    fill="url(#paint9_radial_207_13204)" fill-opacity="0.2" />
  <path fill-rule="evenodd" clip-rule="evenodd"
    d="M82.0806 438.864C81.1035 439.935 63.2483 427.261 64.3142 419.05C64.3142 418.693 64.4919 417.265 65.2026 417.086C66.7127 416.551 69.1112 421.103 72.6644 426.369C78.8827 435.74 82.4359 438.329 82.0806 438.864Z"
    fill="#FF7264" />
  <path fill-rule="evenodd" clip-rule="evenodd"
    d="M82.0806 438.864C81.1035 439.935 63.2483 427.261 64.3142 419.05C64.3142 418.693 64.4919 417.265 65.2026 417.086C66.7127 416.551 69.1112 421.103 72.6644 426.369C78.8827 435.74 82.4359 438.329 82.0806 438.864Z"
    fill="url(#paint10_radial_207_13204)" fill-opacity="0.2" />
  <path fill-rule="evenodd" clip-rule="evenodd"
    d="M91.4968 432.349C92.0298 435.026 85.2785 439.31 84.1237 438.329C83.3242 437.525 85.5451 433.955 85.7227 433.866C86.611 432.438 87.7658 430.474 89.276 430.653C90.1643 430.653 91.3191 431.367 91.4968 432.349Z"
    fill="#FF7264" />
  <path fill-rule="evenodd" clip-rule="evenodd"
    d="M91.4968 432.349C92.0298 435.026 85.2785 439.31 84.1237 438.329C83.3242 437.525 85.5451 433.955 85.7227 433.866C86.611 432.438 87.7658 430.474 89.276 430.653C90.1643 430.653 91.3191 431.367 91.4968 432.349Z"
    fill="url(#paint11_radial_207_13204)" fill-opacity="0.2" />
  <path
    d="M152.791 438.329C152.791 431.188 132.892 429.849 136.446 424.048C139.466 419.317 144.707 428.064 146.661 425.387C148.527 422.709 135.202 415.569 139.732 411.999C143.908 408.607 146.573 425.387 150.836 420.745C154.212 417.175 134.847 404.144 140.177 400.128C144.174 397.182 148.083 413.516 150.481 409.767C152.258 407 139.821 391.024 147.283 390.131C153.146 389.328 148.438 405.661 153.501 406.018C159.542 406.286 158.831 388.792 164.428 392.184C170.024 395.486 154.923 408.518 157.499 410.927C161.319 414.319 168.425 401.556 170.291 408.518C171.357 412.534 165.316 414.676 158.298 417.175C152.347 419.317 151.725 426.547 160.253 423.423C165.227 421.638 170.113 412.802 173.577 415.747C178.108 419.496 166.027 425.208 160.253 426.636C155.189 427.886 154.212 431.545 161.585 432.081C167.714 432.527 165.671 437.079 160.519 436.454C154.301 435.562 152.791 442.97 152.791 438.329Z"
    fill="#4629D3" />
  <path
    d="M152.791 438.329C152.791 431.188 132.892 429.849 136.446 424.048C139.466 419.317 144.707 428.064 146.661 425.387C148.527 422.709 135.202 415.569 139.732 411.999C143.908 408.607 146.573 425.387 150.836 420.745C154.212 417.175 134.847 404.144 140.177 400.128C144.174 397.182 148.083 413.516 150.481 409.767C152.258 407 139.821 391.024 147.283 390.131C153.146 389.328 148.438 405.661 153.501 406.018C159.542 406.286 158.831 388.792 164.428 392.184C170.024 395.486 154.923 408.518 157.499 410.927C161.319 414.319 168.425 401.556 170.291 408.518C171.357 412.534 165.316 414.676 158.298 417.175C152.347 419.317 151.725 426.547 160.253 423.423C165.227 421.638 170.113 412.802 173.577 415.747C178.108 419.496 166.027 425.208 160.253 426.636C155.189 427.886 154.212 431.545 161.585 432.081C167.714 432.527 165.671 437.079 160.519 436.454C154.301 435.562 152.791 442.97 152.791 438.329Z"
    fill="url(#paint12_linear_207_13204)" fill-opacity="0.2" />
  <path fill-rule="evenodd" clip-rule="evenodd"
    d="M174.91 439.667C174.91 438.686 174.022 437.882 173.133 437.347C172.334 436.811 171.357 436.365 171.09 435.383C170.912 435.026 170.912 434.491 171.179 434.134C171.534 433.777 172.156 433.955 172.6 434.134C173.044 434.491 173.4 434.848 173.844 435.026H174.288C174.643 435.026 174.643 434.401 174.466 434.134C174.11 433.42 173.4 432.973 172.867 432.438C172.129 431.726 171.658 430.78 171.534 429.76C171.445 429.135 171.534 428.243 172.245 427.975C172.867 427.886 173.489 428.332 173.844 428.868L174.555 430.296C174.643 430.742 174.732 431.277 175.176 431.545C175.621 431.813 176.242 431.545 176.509 431.099C176.775 430.563 176.686 430.028 176.598 429.492C176.42 428.6 175.976 427.797 175.354 427.172C174.821 426.547 174.022 426.011 173.755 425.119C173.662 424.776 173.637 424.418 173.683 424.066C173.729 423.713 173.844 423.373 174.022 423.066C174.555 422.174 175.443 421.46 176.331 421.727C176.953 421.817 177.486 422.441 177.664 423.155C177.841 423.78 177.841 424.494 177.752 425.119L177.397 428.154C177.308 428.6 177.219 429.225 177.664 429.492C178.019 429.671 178.463 429.492 178.552 429.135C178.818 428.778 178.73 428.332 178.641 427.975C178.552 427.618 178.374 427.261 178.463 426.904C178.641 426.547 178.996 426.368 179.351 426.368C180.24 426.19 181.306 427.35 181.128 428.421C180.773 429.76 179.085 430.206 178.285 431.277V431.545C178.285 431.724 178.552 431.813 178.73 431.724C179.351 431.545 179.884 431.01 180.506 430.831C181.128 430.474 182.016 430.563 182.283 431.188C182.549 431.635 182.283 432.259 181.839 432.616C181.395 432.973 180.862 433.063 180.329 433.241C179.796 433.241 179.263 433.509 178.818 433.866C178.73 433.955 178.552 434.134 178.641 434.401C178.641 434.58 178.818 434.758 179.085 434.848C179.529 435.115 180.151 434.937 180.684 434.848C181.128 434.669 181.75 434.491 182.283 434.669C182.816 434.848 183.171 435.383 182.994 435.919C182.905 436.186 182.638 436.365 182.461 436.454C181.75 436.901 180.95 437.258 180.062 437.168C179.618 437.168 179.174 436.901 178.641 436.722L176.864 436.544C176.864 436.544 176.598 436.543 176.509 436.722C176.242 436.99 176.509 437.436 176.775 437.615L177.841 437.525C178.108 437.525 178.552 437.525 178.73 437.882C178.818 438.329 178.463 438.775 178.019 438.775C177.575 438.953 177.131 438.775 176.775 438.775C176.242 438.775 175.798 439.043 175.354 439.4C175.354 439.4 175.265 439.578 175.088 439.578C174.999 439.578 174.821 439.489 174.91 439.4"
    fill="#030D54" />
  <path fill-rule="evenodd" clip-rule="evenodd"
    d="M109.618 425.119C113.882 420.656 122.055 423.334 126.141 427.261C129.161 430.028 131.738 435.115 130.227 437.615C129.428 438.775 128.096 438.507 119.301 438.507C110.862 438.418 109.707 438.507 108.641 437.347C105.976 434.669 106.509 428.332 109.53 425.119H109.618ZM98.8698 435.919C98.8698 434.401 101.535 432.706 103.578 433.42C105.355 434.044 106.687 436.097 106.065 437.436C105.443 438.864 102.778 438.953 101.002 438.15C100.824 438.15 98.8698 437.258 98.8698 435.919Z"
    fill="#25AC9F" />
  <path
    d="M478.892 129.687C476.672 129.151 474.451 128.794 472.052 128.616C472.165 128.389 472.225 128.139 472.229 127.885C472.233 127.632 472.18 127.38 472.074 127.15C471.969 126.919 471.813 126.716 471.618 126.554C471.424 126.392 471.196 126.276 470.951 126.214C470.706 126.153 470.45 126.147 470.203 126.198C469.956 126.249 469.723 126.355 469.521 126.509C469.32 126.662 469.156 126.859 469.04 127.084C468.925 127.31 468.861 127.559 468.854 127.812C466.722 127.009 464.502 126.384 462.281 125.849C457.306 124.688 453.131 124.331 453.042 124.956C452.865 125.67 456.773 127.188 461.748 128.348C463.969 128.883 466.189 129.24 468.499 129.508V130.133C468.329 130.195 468.177 130.295 468.053 130.427C467.929 130.558 467.837 130.717 467.785 130.891C467.734 131.064 467.723 131.248 467.754 131.426C467.786 131.604 467.858 131.773 467.966 131.918C467.078 131.918 466.278 132.454 465.834 133.168C465.479 132.721 464.946 132.275 464.413 132.275L447.89 127.545C447.483 126.57 446.853 125.706 446.05 125.024C445.247 124.341 444.295 123.859 443.271 123.617L432.789 121.208C430.657 120.672 428.436 121.208 426.837 122.725L410.847 119.779C410.314 119.69 409.781 119.779 409.248 119.958C409.159 119.155 408.715 118.53 408.093 118.084C408.449 117.905 408.715 117.637 408.804 117.191C408.893 116.745 408.715 116.299 408.271 116.031L408.449 115.585C410.669 116.388 412.89 117.013 415.111 117.548C420.086 118.708 424.172 119.065 424.35 118.441C424.527 117.637 420.619 116.209 415.644 115.049C413.423 114.513 411.202 114.156 408.893 113.889C409.071 112.996 408.538 112.104 407.649 111.836C406.761 111.657 405.873 112.282 405.606 113.175C403.464 112.363 401.268 111.707 399.033 111.211C394.058 110.051 389.972 109.694 389.794 110.319C389.616 111.033 393.525 112.55 398.5 113.71C400.72 114.246 402.941 114.603 405.251 114.781V115.406C405.081 115.468 404.928 115.568 404.804 115.7C404.681 115.831 404.589 115.99 404.537 116.164C404.485 116.337 404.475 116.521 404.506 116.699C404.537 116.877 404.61 117.046 404.718 117.191C404.096 117.284 403.518 117.564 403.058 117.994C402.598 118.425 402.278 118.985 402.142 119.601L401.698 121.654C401.508 122.446 401.634 123.282 402.049 123.982C402.464 124.683 403.135 125.192 403.918 125.403L405.162 125.67C406.05 125.938 407.116 125.67 407.827 125.045C408.182 125.581 408.715 126.027 409.426 126.206L424.883 130.222C425.149 131.115 425.682 132.007 426.304 132.721C424.527 133.971 417.065 139.594 415.2 152C415.2 152 415.733 154.053 418.576 152.804C418.576 152.804 420.175 138.791 430.124 135.221C430.124 136.113 430.834 136.916 431.723 137.184L432.877 137.363C430.39 137.809 428.436 139.683 427.903 142.093C427.642 142.883 427.548 143.719 427.628 144.548C427.707 145.376 427.958 146.179 428.363 146.904C428.769 147.63 429.321 148.263 429.984 148.761C430.647 149.26 431.407 149.615 432.214 149.802C433.021 149.989 433.858 150.005 434.672 149.848C435.485 149.692 436.257 149.366 436.939 148.893C437.62 148.419 438.195 147.808 438.628 147.098C439.06 146.388 439.341 145.596 439.451 144.771C439.984 142.361 439.096 139.862 437.053 138.344L438.207 138.612C439.096 138.88 439.984 138.434 440.517 137.63C447.89 145.217 443.182 158.516 443.182 158.516C445.225 160.837 446.558 159.23 446.558 159.23C450.822 145.485 444.692 136.649 444.692 136.649H444.514C445.225 136.292 445.847 135.756 446.38 135.31L462.814 138.612C463.613 138.791 464.324 138.612 464.946 138.166C465.301 139.148 466.101 139.862 467.078 140.04L468.232 140.308C469.02 140.47 469.84 140.318 470.519 139.885C471.198 139.453 471.684 138.772 471.875 137.987L472.408 135.935C472.674 134.774 472.23 133.525 471.253 132.721C471.454 132.65 471.632 132.524 471.766 132.357C471.9 132.191 471.986 131.99 472.014 131.777C472.041 131.565 472.01 131.348 471.922 131.153C471.835 130.957 471.696 130.789 471.519 130.669L471.697 130.222C473.868 131.038 476.094 131.694 478.359 132.186C483.245 133.346 487.42 133.703 487.598 133.078C487.776 132.364 483.867 130.847 478.892 129.687Z"
    fill="url(#paint13_linear_207_13204)" />
  <path
    d="M431.989 148.609C432.759 148.922 433.588 149.065 434.418 149.028C435.248 148.99 436.06 148.773 436.799 148.391C437.538 148.009 438.186 147.471 438.699 146.815C439.213 146.158 439.579 145.398 439.773 144.586C439.967 143.774 439.984 142.93 439.823 142.11C439.662 141.291 439.328 140.517 438.842 139.839C438.356 139.162 437.73 138.598 437.007 138.186C436.285 137.774 435.482 137.524 434.654 137.452C433.277 137.333 431.903 137.714 430.781 138.526C429.66 139.338 428.866 140.527 428.543 141.878C428.221 143.229 428.391 144.651 429.023 145.886C429.656 147.121 430.708 148.087 431.989 148.609Z"
    fill="#28316D" />
  <path
    d="M432.433 146.824C432.953 147.017 433.508 147.098 434.06 147.06C434.613 147.022 435.152 146.866 435.64 146.603C436.129 146.34 436.556 145.975 436.893 145.534C437.231 145.092 437.471 144.583 437.598 144.041C437.725 143.499 437.736 142.936 437.63 142.39C437.523 141.843 437.303 141.326 436.982 140.871C436.662 140.417 436.249 140.036 435.771 139.755C435.293 139.473 434.761 139.296 434.21 139.237C433.263 139.135 432.311 139.384 431.534 139.937C430.756 140.491 430.207 141.31 429.989 142.242C429.77 143.174 429.898 144.154 430.349 144.997C430.799 145.841 431.54 146.491 432.433 146.824Z"
    fill="#676D98" />
  <path
    d="M432.7 145.485C433.047 145.657 433.429 145.749 433.816 145.752C434.204 145.756 434.587 145.672 434.938 145.506C435.289 145.34 435.597 145.097 435.842 144.795C436.086 144.492 436.259 144.138 436.348 143.759C436.437 143.381 436.44 142.986 436.356 142.606C436.273 142.226 436.105 141.87 435.865 141.564C435.626 141.258 435.32 141.01 434.972 140.839C434.624 140.668 434.242 140.578 433.855 140.576C433.272 140.573 432.706 140.768 432.248 141.13C431.79 141.492 431.468 141.999 431.334 142.569C431.2 143.138 431.262 143.737 431.51 144.266C431.758 144.796 432.178 145.225 432.7 145.485Z"
    fill="#030D54" />
  <path
    d="M426.482 132.632C426.482 132.632 417.421 137.541 415.466 151.019C415.466 151.019 415.999 152.893 418.664 151.733C418.664 151.733 420.619 134.596 434.299 134.417L426.482 132.632ZM443.893 136.649C443.893 136.649 449.933 145.128 445.847 158.07C445.847 158.07 444.514 159.587 442.56 157.266C442.56 157.266 448.423 141.022 436.164 134.953L443.893 136.738V136.649Z"
    fill="#28316D" />
  <path
    d="M442.461 124.415L432.247 122.046C428.757 121.237 425.276 123.423 424.47 126.929L424.45 127.016C423.644 130.522 425.82 134.021 429.31 134.83L439.523 137.199C443.013 138.009 446.495 135.823 447.3 132.317L447.32 132.23C448.126 128.723 445.95 125.225 442.461 124.415Z"
    fill="#030D54" />
  <path
    d="M427.459 131.204L409.692 126.652C409.346 126.569 409.019 126.417 408.732 126.204C408.444 125.992 408.203 125.724 408.02 125.416C407.838 125.108 407.719 124.767 407.671 124.412C407.622 124.057 407.645 123.696 407.738 123.35L407.916 122.636C408.182 121.208 409.692 120.226 411.025 120.494L429.058 123.885C429.428 123.937 429.784 124.066 430.102 124.265C430.419 124.463 430.692 124.727 430.901 125.039C431.111 125.35 431.253 125.702 431.318 126.073C431.383 126.443 431.369 126.823 431.279 127.188L430.834 129.24C430.751 129.6 430.597 129.94 430.381 130.239C430.166 130.538 429.892 130.791 429.578 130.983C429.263 131.174 428.913 131.3 428.549 131.353C428.186 131.407 427.815 131.386 427.459 131.293V131.204ZM443.537 135.042L461.57 138.612C462.991 138.969 464.413 137.987 464.768 136.559L464.946 135.845C465.039 135.499 465.062 135.138 465.013 134.783C464.965 134.428 464.846 134.087 464.664 133.779C464.481 133.471 464.239 133.203 463.952 132.991C463.665 132.778 463.338 132.626 462.991 132.543L445.314 127.634C444.958 127.527 444.583 127.497 444.215 127.544C443.846 127.592 443.492 127.716 443.174 127.91C442.856 128.103 442.582 128.361 442.369 128.667C442.156 128.973 442.01 129.32 441.938 129.687L441.405 131.65C441.314 132.014 441.297 132.393 441.356 132.763C441.414 133.134 441.547 133.489 441.747 133.806C441.946 134.123 442.208 134.396 442.516 134.609C442.823 134.821 443.171 134.969 443.537 135.042Z"
    fill="#6C63FF" />
  <path
    d="M427.459 131.204L409.692 126.652C409.346 126.569 409.019 126.417 408.732 126.204C408.444 125.992 408.203 125.724 408.02 125.416C407.838 125.108 407.719 124.767 407.671 124.412C407.622 124.057 407.645 123.696 407.738 123.35L407.916 122.636C408.182 121.208 409.692 120.226 411.025 120.494L429.058 123.885C429.428 123.937 429.784 124.066 430.102 124.265C430.419 124.463 430.692 124.727 430.901 125.039C431.111 125.35 431.253 125.702 431.318 126.073C431.383 126.443 431.369 126.823 431.279 127.188L430.834 129.24C430.751 129.6 430.597 129.94 430.381 130.239C430.166 130.538 429.892 130.791 429.578 130.983C429.263 131.174 428.913 131.3 428.549 131.353C428.186 131.407 427.815 131.386 427.459 131.293V131.204ZM443.537 135.042L461.57 138.612C462.991 138.969 464.413 137.987 464.768 136.559L464.946 135.845C465.039 135.499 465.062 135.138 465.013 134.783C464.965 134.428 464.846 134.087 464.664 133.779C464.481 133.471 464.239 133.203 463.952 132.991C463.665 132.778 463.338 132.626 462.991 132.543L445.314 127.634C444.958 127.527 444.583 127.497 444.215 127.544C443.846 127.592 443.492 127.716 443.174 127.91C442.856 128.103 442.582 128.361 442.369 128.667C442.156 128.973 442.01 129.32 441.938 129.687L441.405 131.65C441.314 132.014 441.297 132.393 441.356 132.763C441.414 133.134 441.547 133.489 441.747 133.806C441.946 134.123 442.208 134.396 442.516 134.609C442.823 134.821 443.171 134.969 443.537 135.042Z"
    fill="#676D98" />
  <path
    d="M409.422 122.544C409.863 120.623 408.671 118.706 406.759 118.262C404.847 117.818 402.939 119.016 402.497 120.938L402.317 121.72C401.876 123.641 403.068 125.558 404.98 126.002C406.892 126.446 408.8 125.248 409.242 123.326L409.422 122.544Z"
    fill="#030D54" />
  <path
    d="M470.627 136.735C471.068 134.814 469.876 132.897 467.964 132.453C466.052 132.01 464.144 133.208 463.702 135.129L463.522 135.912C463.081 137.833 464.273 139.75 466.185 140.193C468.097 140.637 470.005 139.439 470.447 137.518L470.627 136.735Z"
    fill="#030D54" />
  <path
    d="M408.276 116.863L406.198 116.381C405.625 116.248 405.052 116.607 404.92 117.184C404.787 117.76 405.145 118.335 405.719 118.468L407.796 118.95C408.37 119.083 408.942 118.724 409.075 118.147C409.207 117.571 408.849 116.996 408.276 116.863Z"
    fill="#28316D" />
  <path
    d="M409.073 115.017C409.272 114.152 408.735 113.289 407.875 113.09C407.014 112.89 406.156 113.429 405.957 114.294L405.597 115.859C405.399 116.724 405.935 117.586 406.796 117.786C407.656 117.986 408.515 117.447 408.713 116.582L409.073 115.017Z"
    fill="#28316D" />
  <path
    d="M399.033 114.692C403.829 115.852 407.916 116.209 408.005 115.585C408.182 114.87 404.451 113.442 399.566 112.371C394.769 111.211 390.682 110.854 390.682 111.479C390.416 112.193 394.236 113.621 399.033 114.692Z"
    fill="#6C63FF" />
  <path
    d="M415.111 118.441C419.908 119.601 423.994 119.958 424.083 119.333C424.261 118.619 420.53 117.191 415.644 116.12C410.847 114.96 406.85 114.603 406.761 115.228C406.583 115.942 410.314 117.37 415.111 118.441Z"
    fill="#6C63FF" />
  <path
    d="M469.572 131.034L467.495 130.552C466.921 130.419 466.349 130.779 466.216 131.355C466.084 131.931 466.441 132.507 467.015 132.64L469.092 133.122C469.666 133.255 470.238 132.895 470.371 132.319C470.503 131.742 470.146 131.167 469.572 131.034Z"
    fill="#28316D" />
  <path
    d="M470.367 129.208C470.566 128.343 470.029 127.481 469.169 127.281C468.308 127.082 467.45 127.621 467.251 128.485L466.891 130.051C466.693 130.915 467.229 131.778 468.09 131.977C468.95 132.177 469.809 131.638 470.007 130.773L470.367 129.208Z"
    fill="#28316D" />
  <path
    d="M460.327 128.973C465.123 130.044 469.21 130.401 469.298 129.776C469.476 129.151 465.745 127.723 460.859 126.563C456.063 125.492 452.065 125.045 451.976 125.67C451.799 126.384 455.53 127.812 460.327 128.973Z"
    fill="#6C63FF" />
  <path
    d="M476.494 132.632C481.291 133.792 485.288 134.149 485.377 133.525C485.555 132.9 481.824 131.472 477.027 130.311C472.23 129.24 468.144 128.794 468.055 129.419C467.877 130.133 471.608 131.561 476.494 132.632Z"
    fill="#6C63FF" />
  <path
    d="M399.033 114.692C403.829 115.852 407.916 116.209 408.005 115.585C408.182 114.87 404.451 113.442 399.566 112.371C394.769 111.211 390.682 110.854 390.682 111.479C390.416 112.193 394.236 113.621 399.033 114.692Z"
    fill="#676D98" />
  <path
    d="M415.111 118.441C419.908 119.601 423.994 119.958 424.083 119.333C424.261 118.619 420.53 117.191 415.644 116.12C410.847 114.96 406.85 114.603 406.761 115.228C406.583 115.942 410.314 117.37 415.111 118.441ZM460.327 128.973C465.123 130.044 469.21 130.401 469.298 129.776C469.476 129.151 465.745 127.723 460.859 126.563C456.063 125.492 452.065 125.045 451.976 125.67C451.799 126.384 455.53 127.812 460.327 128.973Z"
    fill="#676D98" />
  <path
    d="M476.494 132.632C481.291 133.792 485.288 134.149 485.377 133.525C485.555 132.9 481.824 131.472 477.027 130.311C472.23 129.24 468.144 128.794 468.055 129.419C467.877 130.133 471.608 131.561 476.494 132.632Z"
    fill="#676D98" />
  <path
    d="M438.611 134.381L432.379 132.935C431.231 132.669 430.087 133.388 429.822 134.541C429.557 135.694 430.272 136.844 431.419 137.11L437.651 138.555C438.799 138.822 439.944 138.103 440.208 136.95C440.473 135.797 439.758 134.647 438.611 134.381Z"
    fill="#6C63FF" />
  <path
    d="M438.611 134.381L432.379 132.935C431.231 132.669 430.087 133.388 429.822 134.541C429.557 135.694 430.272 136.844 431.419 137.11L437.651 138.555C438.799 138.822 439.944 138.103 440.208 136.95C440.473 135.797 439.758 134.647 438.611 134.381Z"
    fill="#676D98" />
  <path
    d="M208.133 328.992C203.336 335.329 203.869 343.987 203.869 343.987C203.869 343.987 212.219 342.202 217.016 335.954C221.813 329.527 221.28 320.87 221.28 320.87C221.28 320.87 212.93 322.655 208.133 328.992Z"
    fill="#2CCBBB" />
  <path
    d="M211.42 330.866C210.443 338.81 204.047 344.522 204.047 344.522C204.047 344.522 199.161 337.471 200.138 329.617C201.026 321.673 207.422 315.961 207.422 315.961C207.422 315.961 212.308 323.012 211.331 330.866H211.42Z"
    fill="#63FFD4" />
  <path
    d="M298.208 376.208C298.344 375.65 298.344 375.069 298.208 374.512C298.12 373.976 297.853 373.619 297.498 373.351L292.168 370.049C290.924 369.156 288.526 368.175 288.526 368.175L287.637 369.067L296.521 377.1C296.698 377.279 296.965 377.368 297.231 377.279C297.587 377.279 297.942 376.832 298.12 376.208H298.208Z"
    fill="#28316D" />
  <path
    d="M289.858 373.441C290.612 373.441 291.335 373.14 291.868 372.604C292.401 372.068 292.701 371.342 292.701 370.585C292.701 369.827 292.401 369.101 291.868 368.565C291.335 368.029 290.612 367.728 289.858 367.728C289.104 367.728 288.381 368.029 287.848 368.565C287.315 369.101 287.016 369.827 287.016 370.585C287.016 371.342 287.315 372.068 287.848 372.604C288.381 373.14 289.104 373.441 289.858 373.441Z"
    fill="#030D54" />
  <path
    d="M289.858 372.548C290.377 372.548 290.874 372.341 291.24 371.973C291.607 371.605 291.813 371.105 291.813 370.585C291.813 370.064 291.607 369.564 291.24 369.196C290.874 368.828 290.377 368.621 289.858 368.621C289.34 368.621 288.843 368.828 288.476 369.196C288.11 369.564 287.904 370.064 287.904 370.585C287.904 371.105 288.11 371.605 288.476 371.973C288.843 372.341 289.34 372.548 289.858 372.548Z"
    fill="white" fill-opacity="0.4" />
  <defs>
    <linearGradient id="paint0_linear_207_13204" x1="0.0897251" y1="0" x2="0.0897251" y2="471"
      gradientUnits="userSpaceOnUse">
      <stop stop-color="white" stop-opacity="0" />
      <stop offset="1" stop-color="white" />
    </linearGradient>
    <linearGradient id="paint1_linear_207_13204" x1="0" y1="-0.156206" x2="0" y2="471"
      gradientUnits="userSpaceOnUse">
      <stop stop-color="white" stop-opacity="0" />
      <stop offset="1" stop-color="white" />
    </linearGradient>
    <radialGradient id="paint2_radial_207_13204" cx="0" cy="0" r="1" gradientUnits="userSpaceOnUse"
      gradientTransform="translate(268.5) rotate(90) scale(470.484 535.936)">
      <stop stop-color="white" stop-opacity="0" />
      <stop offset="1" stop-color="white" />
    </radialGradient>
    <radialGradient id="paint3_radial_207_13204" cx="0" cy="0" r="1" gradientUnits="userSpaceOnUse"
      gradientTransform="translate(268.643 -0.120516) rotate(90) scale(471.091 536.959)">
      <stop stop-color="white" stop-opacity="0" />
      <stop offset="1" stop-color="white" />
    </radialGradient>
    <radialGradient id="paint4_radial_207_13204" cx="0" cy="0" r="1" gradientUnits="userSpaceOnUse"
      gradientTransform="translate(268.5) rotate(90) scale(471.204 536.927)">
      <stop stop-color="white" stop-opacity="0" />
      <stop offset="1" stop-color="white" />
    </radialGradient>
    <radialGradient id="paint5_radial_207_13204" cx="0" cy="0" r="1" gradientUnits="userSpaceOnUse"
      gradientTransform="translate(268.648) rotate(90) scale(470.922 537.246)">
      <stop stop-color="white" stop-opacity="0" />
      <stop offset="1" stop-color="white" />
    </radialGradient>
    <linearGradient id="paint6_linear_207_13204" x1="0" y1="0.159304" x2="0" y2="472.065"
      gradientUnits="userSpaceOnUse">
      <stop stop-color="white" stop-opacity="0" />
      <stop offset="1" stop-color="white" />
    </linearGradient>
    <linearGradient id="paint7_linear_207_13204" x1="0" y1="0" x2="0" y2="471"
      gradientUnits="userSpaceOnUse">
      <stop stop-color="white" stop-opacity="0" />
      <stop offset="1" stop-color="white" />
    </linearGradient>
    <radialGradient id="paint8_radial_207_13204" cx="0" cy="0" r="1" gradientUnits="userSpaceOnUse"
      gradientTransform="translate(270.169 -0.90363) rotate(90) scale(471.025 537.28)">
      <stop stop-color="white" stop-opacity="0" />
      <stop offset="1" stop-color="white" />
    </radialGradient>
    <radialGradient id="paint9_radial_207_13204" cx="0" cy="0" r="1" gradientUnits="userSpaceOnUse"
      gradientTransform="translate(265.121) rotate(90) scale(470.401 531.474)">
      <stop stop-color="white" stop-opacity="0" />
      <stop offset="1" stop-color="white" />
    </radialGradient>
    <radialGradient id="paint10_radial_207_13204" cx="0" cy="0" r="1" gradientUnits="userSpaceOnUse"
      gradientTransform="translate(268.824 -0.996818) rotate(90) scale(470.802 537.464)">
      <stop stop-color="white" stop-opacity="0" />
      <stop offset="1" stop-color="white" />
    </radialGradient>
    <radialGradient id="paint11_radial_207_13204" cx="0" cy="0" r="1" gradientUnits="userSpaceOnUse"
      gradientTransform="translate(270.423 0.683183) rotate(90) scale(472.52 532.485)">
      <stop stop-color="white" stop-opacity="0" />
      <stop offset="1" stop-color="white" />
    </radialGradient>
    <linearGradient id="paint12_linear_207_13204" x1="-0.267693" y1="-0.573262" x2="-0.267693"
      y2="471.621" gradientUnits="userSpaceOnUse">
      <stop stop-color="white" stop-opacity="0" />
      <stop offset="1" stop-color="white" />
    </linearGradient>
    <linearGradient id="paint13_linear_207_13204" x1="493.077" y1="546.981" x2="621.829"
      y2="227.489" gradientUnits="userSpaceOnUse">
      <stop stop-color="#808080" stop-opacity="0.3" />
      <stop offset="0.5" stop-color="#808080" stop-opacity="0.1" />
      <stop offset="1" stop-color="#808080" stop-opacity="0.1" />
    </linearGradient>
  </defs>
</svg>